<svg width="12" height="4" viewBox="0 0 12 4" fill="none" xmlns="http://www.w3.org/2000/svg">
<path d="M1.52081 3.1974C0.859815 3.1974 0.322815 2.6604 0.322815 2.0004C0.322815 1.3404 0.859815 0.802399 1.52081 0.802399C2.18181 0.802399 2.71881 1.3404 2.71881 2.0004C2.71881 2.6604 2.18181 3.1974 1.52081 3.1974Z" fill="#A5B4CB"/>
<path d="M6.00022 3.1974C5.33922 3.1974 4.80222 2.6604 4.80222 2.0004C4.80222 1.3404 5.33922 0.802399 6.00022 0.802399C6.66122 0.802399 7.19822 1.3404 7.19822 2.0004C7.19822 2.6604 6.66122 3.1974 6.00022 3.1974Z" fill="#A5B4CB"/>
<path d="M10.4792 3.1974C9.81822 3.1974 9.28122 2.6604 9.28122 2.0004C9.28122 1.3404 9.81822 0.802399 10.4792 0.802399C11.1402 0.802399 11.6772 1.3404 11.6772 2.0004C11.6772 2.6604 11.1402 3.1974 10.4792 3.1974Z" fill="#A5B4CB"/>
</svg>
