<svg width="14" height="13" viewBox="0 0 14 13" fill="none" xmlns="http://www.w3.org/2000/svg">
<path d="M13.4523 1.17296H5.11144C4.88213 0.491885 4.23793 -0.000183105 3.48051 -0.000183105C2.7231 -0.000183105 2.0789 0.491885 1.84958 1.17296H0.547635C0.245194 1.17296 0 1.41815 0 1.7206C0 2.02304 0.245194 2.26823 0.547635 2.26823H1.84962C2.07893 2.94931 2.72313 3.44137 3.48055 3.44137C4.23797 3.44137 4.88217 2.94931 5.11148 2.26823H13.4524C13.7548 2.26823 14 2.02304 14 1.7206C14 1.41815 13.7548 1.17296 13.4523 1.17296ZM3.48051 2.3461C3.13561 2.3461 2.855 2.0655 2.855 1.7206C2.855 1.3757 3.13561 1.09509 3.48051 1.09509C3.82541 1.09509 4.10602 1.3757 4.10602 1.7206C4.10602 2.0655 3.82541 2.3461 3.48051 2.3461Z" fill="white"/>
<path d="M13.4523 5.70476H12.1503C11.921 5.02368 11.2768 4.53162 10.5194 4.53162C9.76203 4.53162 9.11783 5.02368 8.88852 5.70476H0.547635C0.245194 5.70476 0 5.94995 0 6.2524C0 6.55484 0.245194 6.80003 0.547635 6.80003H8.88852C9.11783 7.48111 9.76207 7.97318 10.5194 7.97318C11.2768 7.97318 11.9211 7.48111 12.1504 6.80003H13.4524C13.7548 6.80003 14 6.55484 14 6.2524C14 5.94995 13.7548 5.70476 13.4523 5.70476ZM10.5194 6.8779C10.1745 6.8779 9.89394 6.5973 9.89394 6.2524C9.89394 5.9075 10.1745 5.62689 10.5194 5.62689C10.8644 5.62689 11.145 5.9075 11.145 6.2524C11.145 6.5973 10.8644 6.8779 10.5194 6.8779Z" fill="white"/>
<path d="M13.4523 10.2365H7.45777C7.22846 9.55545 6.58425 9.06339 5.82684 9.06339C5.06942 9.06339 4.42522 9.55545 4.19591 10.2365H0.547635C0.245194 10.2365 0 10.4817 0 10.7842C0 11.0866 0.245194 11.3318 0.547635 11.3318H4.19591C4.42522 12.0129 5.06942 12.5049 5.82684 12.5049C6.58425 12.5049 7.22846 12.0129 7.45777 11.3318H13.4524C13.7548 11.3318 14 11.0866 14 10.7842C14 10.4817 13.7548 10.2365 13.4523 10.2365ZM5.82684 11.4097C5.48194 11.4097 5.20133 11.1291 5.20133 10.7842C5.20133 10.4393 5.48194 10.1587 5.82684 10.1587C6.17174 10.1587 6.45235 10.4393 6.45235 10.7842C6.45235 11.1291 6.17174 11.4097 5.82684 11.4097Z" fill="white"/>
</svg>
