<svg width="16" height="16" viewBox="0 0 16 16" fill="none" xmlns="http://www.w3.org/2000/svg">
<path fill-rule="evenodd" clip-rule="evenodd" d="M2.33386 9.19142V9.04543C2.35528 8.61351 2.49371 8.195 2.73488 7.83308C3.13631 7.39832 3.41112 6.86555 3.53046 6.29066C3.53046 5.84634 3.53046 5.39568 3.56926 4.95136C3.76977 2.81229 5.88483 1.33334 7.97402 1.33334H8.02576C10.1149 1.33334 12.23 2.81229 12.437 4.95136C12.4758 5.39568 12.437 5.84634 12.4693 6.29066C12.5903 6.86688 12.8648 7.40131 13.2649 7.83943C13.5079 8.19815 13.6465 8.61512 13.6659 9.04543V9.18508C13.6804 9.76537 13.4805 10.3312 13.1032 10.7783C12.6046 11.301 11.9281 11.6262 11.2016 11.6923C9.07131 11.9208 6.922 11.9208 4.79173 11.6923C4.06608 11.6233 3.39049 11.2986 2.89012 10.7783C2.51865 10.3309 2.32147 9.7684 2.33386 9.19142Z" stroke="#DBE1EA" stroke-width="1.27463" stroke-linecap="round" stroke-linejoin="round"/>
<path d="M6.36993 13.9012C6.70278 14.319 7.19157 14.5893 7.72813 14.6525C8.26468 14.7156 8.80476 14.5663 9.22882 14.2376C9.35925 14.1404 9.4766 14.0273 9.57809 13.9012" stroke="#DBE1EA" stroke-width="1.27463" stroke-linecap="round" stroke-linejoin="round"/>
</svg>
