<svg width="13" height="13" viewBox="0 0 13 13" fill="none" xmlns="http://www.w3.org/2000/svg">
<path d="M5.85 4.54997H8.45C8.62239 4.54997 8.78772 4.48149 8.90962 4.35959C9.03152 4.23769 9.1 4.07236 9.1 3.89997C9.1 3.72758 9.03152 3.56225 8.90962 3.44035C8.78772 3.31845 8.62239 3.24997 8.45 3.24997H7.15V2.59997C7.15 2.42758 7.08152 2.26225 6.95962 2.14035C6.83772 2.01845 6.67239 1.94997 6.5 1.94997C6.32761 1.94997 6.16228 2.01845 6.04038 2.14035C5.91848 2.26225 5.85 2.42758 5.85 2.59997V3.24997C5.33283 3.24997 4.83684 3.45542 4.47114 3.82111C4.10545 4.18681 3.9 4.6828 3.9 5.19997C3.9 5.71714 4.10545 6.21313 4.47114 6.57883C4.83684 6.94452 5.33283 7.14997 5.85 7.14997H7.15C7.32239 7.14997 7.48772 7.21845 7.60962 7.34035C7.73152 7.46225 7.8 7.62758 7.8 7.79997C7.8 7.97236 7.73152 8.13769 7.60962 8.25959C7.48772 8.38149 7.32239 8.44997 7.15 8.44997H4.55C4.37761 8.44997 4.21228 8.51845 4.09038 8.64035C3.96848 8.76225 3.9 8.92758 3.9 9.09997C3.9 9.27236 3.96848 9.43769 4.09038 9.55959C4.21228 9.68149 4.37761 9.74997 4.55 9.74997H5.85V10.4C5.85 10.5724 5.91848 10.7377 6.04038 10.8596C6.16228 10.9815 6.32761 11.05 6.5 11.05C6.67239 11.05 6.83772 10.9815 6.95962 10.8596C7.08152 10.7377 7.15 10.5724 7.15 10.4V9.74997C7.66717 9.74997 8.16316 9.54452 8.52886 9.17883C8.89455 8.81313 9.1 8.31714 9.1 7.79997C9.1 7.2828 8.89455 6.78681 8.52886 6.42111C8.16316 6.05541 7.66717 5.84997 7.15 5.84997H5.85C5.67761 5.84997 5.51228 5.78149 5.39038 5.65959C5.26848 5.53769 5.2 5.37236 5.2 5.19997C5.2 5.02758 5.26848 4.86225 5.39038 4.74035C5.51228 4.61845 5.67761 4.54997 5.85 4.54997ZM11.05 -3.05176e-05H1.95C1.43283 -3.05176e-05 0.936838 0.205415 0.571142 0.571111C0.205446 0.936807 0 1.4328 0 1.94997V11.05C0 11.5671 0.205446 12.0631 0.571142 12.4288C0.936838 12.7945 1.43283 13 1.95 13H11.05C11.5672 13 12.0632 12.7945 12.4289 12.4288C12.7946 12.0631 13 11.5671 13 11.05V1.94997C13 1.4328 12.7946 0.936807 12.4289 0.571111C12.0632 0.205415 11.5672 -3.05176e-05 11.05 -3.05176e-05ZM11.7 11.05C11.7 11.2224 11.6315 11.3877 11.5096 11.5096C11.3877 11.6315 11.2224 11.7 11.05 11.7H1.95C1.77761 11.7 1.61228 11.6315 1.49038 11.5096C1.36848 11.3877 1.3 11.2224 1.3 11.05V1.94997C1.3 1.77758 1.36848 1.61225 1.49038 1.49035C1.61228 1.36845 1.77761 1.29997 1.95 1.29997H11.05C11.2224 1.29997 11.3877 1.36845 11.5096 1.49035C11.6315 1.61225 11.7 1.77758 11.7 1.94997V11.05Z" fill="#2C4EAB"/>
</svg>
